<svg width="14" height="14" viewBox="0 0 14 14" fill="none" xmlns="http://www.w3.org/2000/svg">
<path fill-rule="evenodd" clip-rule="evenodd" d="M7.55986 0.329886C7.43707 0.297188 7.30633 0.314512 7.19629 0.378059C7.08625 0.441606 7.00591 0.546191 6.97286 0.668886L4.63986 9.37689C4.6072 9.49981 4.62466 9.63067 4.6884 9.74074C4.75215 9.8508 4.85698 9.93105 4.97986 9.96389L11.0629 11.5939C11.1858 11.6265 11.3166 11.6091 11.4267 11.5453C11.5368 11.4816 11.617 11.3768 11.6499 11.2539L13.9849 2.54689C14.0012 2.48595 14.0053 2.4224 13.9971 2.35986C13.9888 2.29732 13.9683 2.23702 13.9367 2.18241C13.9052 2.1278 13.8631 2.07995 13.813 2.0416C13.763 2.00324 13.7058 1.97514 13.6449 1.95889L7.55986 0.329886ZM3.43286 9.05289L5.02886 3.09789L0.355859 4.34889C0.294906 4.36514 0.237753 4.39324 0.18767 4.4316C0.137587 4.46995 0.0955553 4.5178 0.0639782 4.57241C0.032401 4.62702 0.0118979 4.68732 0.00364113 4.74986C-0.0046156 4.8124 -0.000463974 4.87595 0.0158586 4.93689L2.35086 13.6439C2.38369 13.7668 2.46395 13.8716 2.57401 13.9353C2.68407 13.9991 2.81493 14.0165 2.93786 13.9839L9.02186 12.3539L9.04486 12.3469L4.65486 11.1709C4.2119 11.0521 3.83425 10.7622 3.60492 10.3651C3.37559 9.96789 3.31334 9.49593 3.43186 9.05289" fill="#C4554D"/>
</svg>
